<svg viewBox="383 278.6343 380 122.3313" width="5000" height="1609.6223684210524" xmlns="http://www.w3.org/2000/svg" xmlns:xlink="http://www.w3.org/1999/xlink" preserveAspectRatio="none"><defs></defs><style>.a6izo4zJpcolor {fill:#08376B;fill-opacity:1;}.aD6z1nYkhcolor {fill:#08376B;fill-opacity:1;}.aIptOCySncolors-0 {fill:#35C0ED;fill-opacity:1;}.atBXipXk0bfillColor {fill:#08376B;fill-opacity:1;}.icon3-str {stroke:#FFAE78;stroke-opacity:1;}.shapeStroke-str {stroke:#313131;stroke-opacity:1;}</style><g opacity="1" transform="rotate(0 383 285.9015)">
<svg width="107.8438" height="107.7969" x="383" y="285.9015" version="1.1" preserveAspectRatio="none" viewBox="4654 4666 50693 50671">
  <g transform="matrix(1 0 0 1 0 0)" class="aIptOCySncolors-0"><defs></defs><g><path class="fil0" d="M11464 14374l10560 -7333c-60,-134 -93,-282 -93,-438 0,-297 120,-565 315,-759 194,-194 463,-315 759,-315 297,0 565,120 759,315 141,141 243,321 288,523 1030,-36 2061,-73 3091,-109 77,-392 269,-743 541,-1014 357,-357 850,-578 1395,-578 545,0 1038,221 1395,578 240,240 418,541 510,879l3410 -121c35,-222 140,-420 292,-572 188,-188 448,-304 735,-304 287,0 547,116 735,304 188,188 304,448 304,735 0,118 -20,232 -56,338 3484,2011 6967,4022 10451,6032 88,-27 180,-41 277,-41 263,0 501,107 673,279 172,172 279,410 279,673 0,89 -12,176 -35,258 1258,1847 2517,3695 3775,5542 251,-124 533,-194 832,-194 519,0 988,210 1328,550 340,340 550,810 550,1328 0,519 -210,988 -550,1328 -222,222 -499,389 -809,478 433,3287 866,6574 1298,9861 232,19 440,121 595,276 172,172 279,410 279,673 0,263 -107,501 -279,673 -172,172 -410,279 -673,279 -57,0 -112,-5 -166,-14 -1340,3534 -2680,7068 -4021,10601 56,37 109,79 156,126 172,172 279,410 279,673 0,263 -107,501 -279,673 -172,172 -410,279 -673,279 -223,0 -428,-77 -591,-206 -3574,2315 -7148,4630 -10723,6945 40,105 62,219 62,338 0,263 -107,501 -279,673 -172,172 -410,279 -673,279 -263,0 -501,-107 -673,-279 -120,-120 -209,-273 -251,-444 -3048,187 -6095,374 -9143,560 -48,135 -125,256 -225,356 -172,172 -410,279 -673,279 -263,0 -501,-107 -673,-279 -172,-172 -279,-410 -279,-673l0 -1c-1262,-551 -2525,-1102 -3787,-1653 -172,168 -406,271 -665,271 -263,0 -501,-107 -673,-279 -172,-172 -279,-410 -279,-673 0,-9 0,-17 0,-25 -1269,-554 -2537,-1108 -3806,-1662l-4441 -4067c-156,111 -346,176 -552,176 -263,0 -501,-107 -673,-279 -172,-172 -279,-410 -279,-673 0,-261 105,-497 275,-669l-3219 -4922c-248,110 -523,171 -812,171 -554,0 -1055,-224 -1418,-587 -363,-363 -587,-864 -587,-1418 0,-554 224,-1055 587,-1418 263,-263 598,-453 974,-538 -199,-1798 -398,-3596 -597,-5394 399,-2605 798,-5211 1196,-7817 -168,-172 -271,-406 -271,-665 0,-263 107,-501 279,-673 146,-146 339,-244 554,-271 869,-1756 1738,-3513 2607,-5269 -70,-45 -135,-97 -194,-155 -205,-205 -331,-488 -331,-800 0,-312 127,-595 331,-800 205,-205 488,-331 800,-331 312,0 595,127 800,331 26,26 50,53 73,81zm-4213 25214l-428 -654c-64,14 -131,21 -200,21 -263,0 -501,-107 -673,-279 -172,-172 -279,-410 -279,-673 0,-285 117,-500 310,-652 103,-81 222,-137 351,-170l-71 -642c-283,72 -535,220 -735,420 -291,291 -470,692 -470,1135 0,443 180,845 470,1135 291,291 692,470 1135,470 208,0 407,-40 590,-112zm-590 -3499c554,0 1055,224 1418,587 128,128 239,274 329,432l7173 -4021c-34,-120 -53,-246 -53,-377 0,-284 87,-547 235,-766l-8091 -8748c-57,11 -116,16 -176,16 -109,0 -214,-18 -312,-52l-1162 7593 591 5335c16,0 32,-1 48,-1zm1908 1387c63,195 97,402 97,618 0,554 -224,1055 -587,1418 -80,80 -166,153 -258,218l3205 4901c106,-41 221,-63 342,-63 263,0 501,107 673,279 118,118 205,267 249,434l3286 -166c26,-497 237,-944 567,-1274 286,-286 661,-484 1080,-548 -153,-3074 -307,-6148 -461,-9222 -325,-31 -616,-176 -834,-394 -68,-68 -129,-143 -181,-224l-7178 4023zm-773 -517c-291,-291 -692,-470 -1135,-470l-4 0 73 661c198,17 384,82 534,200 95,75 172,166 225,273l569 -319c-72,-127 -160,-243 -263,-345zm-194 2436c69,-50 134,-105 194,-166 291,-291 470,-692 470,-1135 0,-144 -19,-284 -55,-418l-638 357c-8,250 -113,476 -278,642 -33,33 -68,63 -105,91l411 629zm19955 -33152l687 -24c39,-62 85,-120 136,-172 172,-172 410,-279 673,-279 263,0 501,107 673,279 36,36 69,75 99,116l746 -26c-78,-233 -209,-441 -379,-610 -285,-285 -678,-461 -1112,-461 -434,0 -828,176 -1112,461 -195,195 -339,441 -411,717zm3492 275c2,40 4,80 4,120 0,545 -221,1038 -578,1395 -152,152 -330,280 -525,376l2117 4283c53,-9 107,-14 163,-14 131,0 257,27 371,75l2259 -5714c-63,-40 -121,-88 -174,-140 -135,-135 -233,-307 -278,-500l-3359 119zm-1475 2030c-158,41 -323,62 -494,62 -545,0 -1038,-221 -1395,-578 -353,-353 -573,-838 -578,-1376l-3041 107c-35,232 -144,439 -302,597 -194,194 -463,315 -759,315 -49,0 -97,-3 -143,-10l-2286 6890c248,104 471,255 658,442 230,230 406,516 506,834l9561 -1997c-15,-66 -22,-136 -22,-206 0,-263 107,-501 279,-673 42,-42 89,-81 139,-115l-2122 -4294zm-2066 -1905c1,432 177,823 461,1107 285,285 678,461 1112,461 107,0 211,-11 311,-31l-253 -512c-28,2 -56,4 -84,4 -263,0 -501,-107 -673,-279 -172,-172 -279,-410 -279,-673 0,-33 2,-66 5,-98l-600 21zm2265 1407c156,-77 298,-179 420,-300 285,-285 461,-678 461,-1112 0,-36 -1,-71 -4,-106l-658 23c9,53 14,108 14,164 0,263 -107,501 -279,673 -60,60 -128,112 -203,155l249 503zm22279 11529l296 435c96,-31 199,-48 306,-48 274,0 522,111 702,291 180,180 291,428 291,702 0,274 -111,522 -291,702 -85,85 -185,154 -296,204l62 467c221,-73 419,-197 579,-358 268,-268 433,-637 433,-1045 0,-408 -165,-778 -433,-1045 -268,-268 -637,-433 -1045,-433 -215,0 -420,46 -604,129zm730 3224c-42,3 -83,4 -126,4 -519,0 -988,-210 -1328,-550 -193,-193 -345,-429 -439,-691l-6919 1576c2,25 2,50 2,75 0,242 -70,467 -191,657l10071 8888c69,-48 144,-87 225,-115l-1295 -9843zm-1988 -1625c-11,-82 -16,-165 -16,-249 0,-519 210,-988 550,-1328 50,-50 103,-98 159,-142l-3656 -5367c-8,9 -17,18 -25,26 -172,172 -410,279 -673,279 -128,0 -250,-25 -361,-71l-3402 7835c88,53 170,116 242,188 115,115 207,252 269,404l6913 -1574zm919 -1388c-36,29 -70,61 -102,93 -268,268 -433,637 -433,1045 0,54 3,107 9,160l475 -108c0,-7 0,-14 0,-22 0,-274 111,-522 291,-702 16,-16 32,-31 48,-45l-287 -422zm-431 1686c75,188 188,357 328,498 268,268 637,433 1045,433 25,0 49,-1 73,-2l-60 -454c-5,0 -10,0 -16,0 -274,0 -522,-111 -702,-291 -84,-84 -153,-182 -202,-292l-468 106zm-39620 -6752c40,116 62,240 62,370 0,17 0,35 -1,52l6077 827c89,-375 281,-710 544,-974 370,-370 881,-599 1446,-599 139,0 275,14 407,40l2289 -6898c-85,-47 -163,-106 -231,-173l-10591 7355zm-28 812c-57,135 -140,256 -242,358 -205,205 -488,331 -800,331 -81,0 -160,-9 -237,-25l-2553 5160c140,47 266,127 368,229 121,121 209,273 251,445l9521 -4711c-127,-266 -198,-564 -198,-879 0,-26 0,-51 1,-77l-6112 -831zm28519 26282c443,54 839,256 1139,556 352,352 570,838 570,1376 0,128 -12,254 -36,375l6962 1460c37,-111 93,-213 165,-301l-7754 -9635c-19,1 -38,2 -57,2 -121,0 -237,-23 -343,-64l-646 6233zm1556 2689c-98,232 -241,442 -417,618 -352,352 -838,570 -1376,570 -537,0 -1024,-218 -1376,-570 -352,-352 -570,-838 -570,-1376 0,-49 2,-98 5,-146l-5471 -1536c-49,82 -107,157 -174,224 -59,59 -124,111 -195,156l2423 4927c56,-5 113,-7 170,-7 537,0 1024,218 1376,570 227,227 398,510 491,826l11743 -2865 -6630 -1390zm-3661 -1299c92,-320 265,-605 494,-834 316,-316 740,-524 1212,-563l672 -6487c-32,-37 -61,-76 -87,-117l-7791 5758c77,154 121,329 121,513 0,73 -7,145 -20,215l5400 1516zm-16928 7890c263,0 501,107 673,279 172,172 279,410 279,673 0,121 -22,236 -63,342l3652 1594c47,-103 113,-196 192,-275 172,-172 410,-279 673,-279 55,0 109,5 162,14l2023 -5291 -9356 -2285c-98,275 -256,521 -457,723 -82,82 -170,156 -265,222l2370 4292c39,-5 79,-8 120,-8zm-855 533c46,-95 108,-180 182,-254 52,-52 109,-97 171,-136l-2338 -4233c-234,99 -491,154 -761,154 -537,0 -1024,-218 -1376,-570 -286,-286 -483,-660 -547,-1079l-3290 167c-20,116 -60,224 -117,322l4391 4021 3684 1608zm6791 1964c50,34 97,73 140,116 153,153 254,359 275,587l9080 -557c35,-195 129,-368 264,-503 40,-40 83,-76 130,-109l-1096 -2228c-317,224 -704,355 -1121,355 -537,0 -1024,-218 -1376,-570 -352,-352 -570,-838 -570,-1376 0,-54 2,-107 7,-160l-3690 -901 -2043 5345zm10432 -635c263,0 501,107 673,279l0 0 10684 -6920c-20,-39 -38,-80 -53,-122l-12125 2959c4,52 6,104 6,156 0,508 -195,971 -514,1318l1154 2347c57,-11 115,-16 175,-16zm-4625 -4201c93,-315 264,-597 490,-823 221,-221 495,-389 800,-483l-2386 -4853c-80,18 -164,27 -250,27 -88,0 -174,-10 -257,-29l-2017 5277 3620 884zm-15241 -5486c496,26 943,238 1273,567 352,352 570,838 570,1376 0,90 -6,179 -18,266l9405 2297 2040 -5337c-68,-44 -131,-95 -188,-152 -208,-208 -337,-496 -337,-813 0,-119 18,-234 52,-342 -4185,-2487 -8370,-4975 -12554,-7463l-5 5c-187,187 -429,320 -699,374l461 9223zm18583 -36426c-16,18 -32,36 -49,53 -188,188 -448,304 -735,304 -65,0 -128,-6 -189,-17l-2296 5806c140,154 229,355 243,576l13223 -734c18,-21 37,-42 57,-62l4 -4 -10259 -5921zm-3087 7124c-21,55 -47,107 -77,156l8940 8128c209,-166 474,-265 762,-265 87,0 173,9 255,26l3439 -7921c-159,-170 -256,-399 -256,-650 0,-69 7,-136 21,-200l-13083 726zm-352 445c-118,81 -255,136 -404,156l-2153 12153c322,92 611,265 841,495 134,134 248,287 338,455l10157 -4181c-21,-89 -31,-182 -31,-277 0,-246 72,-475 197,-667l-8947 -8134zm-804 127c-155,-45 -293,-129 -405,-240 -30,-30 -58,-61 -83,-95l-9653 2016c8,73 12,146 12,221 0,565 -229,1076 -599,1446l-7 7 7382 9072c306,-201 673,-318 1067,-318 47,0 95,2 141,5 716,-4037 1431,-8075 2145,-12113zm21896 19788c-49,-34 -95,-72 -137,-114 -115,-115 -200,-258 -245,-419l-11470 1296c-47,103 -113,197 -192,276 -60,60 -128,112 -202,155l7651 9507c129,-65 274,-102 428,-102 49,0 97,4 143,11l4024 -10610zm-405 -932c19,-125 63,-242 125,-345l-10064 -8881c-211,171 -479,273 -772,273 -10,0 -20,0 -29,0l-1680 8866 -46 448c50,-8 101,-12 154,-12 263,0 501,107 673,279 169,169 275,401 279,658l11361 -1284zm-21937 -4173l8828 4951c36,-55 77,-105 123,-152 31,-31 64,-60 99,-87l70 -678 2 -16 1681 -8874c-169,-62 -321,-160 -446,-285 -67,-67 -126,-142 -176,-223l-10157 4181c52,175 80,361 80,552 0,220 -37,432 -104,630zm8684 5328l-8852 -4964c-83,140 -183,268 -297,382 -248,248 -562,429 -914,515l1357 9841c7,0 15,0 22,0 307,0 586,120 792,317l7888 -5830c-5,-38 -7,-77 -7,-116 0,-49 4,-97 11,-144zm-19283 -16405c-324,215 -712,340 -1130,340 -54,0 -107,-2 -160,-6l-2301 12933c203,68 384,182 532,330 173,173 299,392 360,637l9563 -3337c-34,-144 -52,-295 -52,-449 0,-537 218,-1023 569,-1375l-7382 -9072zm-1682 265c-343,-96 -649,-279 -894,-523 -70,-70 -135,-145 -194,-224l-9725 4812c-41,176 -131,334 -254,457 -34,34 -71,66 -110,94l7974 8621c235,-191 534,-305 861,-305 13,0 27,0 40,1 768,-4311 1536,-8622 2302,-12933zm-979 14378c-12,200 -66,389 -155,557l12500 7431c31,-41 65,-80 101,-116 112,-112 248,-202 399,-260 -453,-3288 -906,-6576 -1360,-9864 -22,1 -45,1 -67,1 -537,0 -1024,-218 -1376,-570 -159,-159 -290,-344 -386,-550l-9656 3370zm-10715 -10529l-46 0 32 32c1,-7 9,-26 13,-32z"></path></g></g>
</svg>
</g><g opacity="1" transform="rotate(0 529.6022 367.6576)">
<svg width="233.3978" height="16.9568" x="529.6022" y="367.6576" version="1.1" preserveAspectRatio="none" viewBox="-0.2 -29.96 417.88 30.360000000000003">
  <g transform="matrix(1 0 0 1 0 0)" class="a6izo4zJpcolor"><path id="id-6izo4zJp16" d="M24.72 0L21.92-6.48L7.92-6.48L5.16 0L-0.20 0L12.40-28L17.52-28L30.16 0L24.72 0ZM9.68-10.56L20.20-10.56L14.92-22.80L9.68-10.56Z M61.44 0.40Q58.20 0.40 55.18-0.52Q52.16-1.44 50.40-2.96L50.40-2.96L52.20-7Q53.92-5.64 56.42-4.78Q58.92-3.92 61.44-3.92L61.44-3.92Q64.56-3.92 66.10-4.92Q67.64-5.92 67.64-7.56L67.64-7.56Q67.64-8.76 66.78-9.54Q65.92-10.32 64.60-10.76Q63.28-11.20 61-11.76L61-11.76Q57.80-12.52 55.82-13.28Q53.84-14.04 52.42-15.66Q51-17.28 51-20.04L51-20.04Q51-22.36 52.26-24.26Q53.52-26.16 56.06-27.28Q58.60-28.40 62.28-28.40L62.28-28.40Q64.84-28.40 67.32-27.76Q69.80-27.12 71.60-25.92L71.60-25.92L69.96-21.88Q68.12-22.96 66.12-23.52Q64.12-24.08 62.24-24.08L62.24-24.08Q59.16-24.08 57.66-23.04Q56.16-22 56.16-20.28L56.16-20.28Q56.16-19.08 57.02-18.32Q57.88-17.56 59.20-17.12Q60.52-16.68 62.80-16.12L62.80-16.12Q65.92-15.40 67.92-14.62Q69.92-13.84 71.34-12.24Q72.76-10.64 72.76-7.92L72.76-7.92Q72.76-5.60 71.50-3.72Q70.24-1.84 67.68-0.72Q65.12 0.40 61.44 0.40L61.44 0.40Z M91.04 0.28Q87.80 0.28 85.20-1.12Q82.60-2.52 81.14-5.02Q79.68-7.52 79.68-10.68L79.68-10.68Q79.68-13.84 81.14-16.32Q82.60-18.80 85.20-20.20Q87.80-21.60 91.04-21.60L91.04-21.60Q94.32-21.60 96.92-20.20Q99.52-18.80 100.98-16.32Q102.44-13.84 102.44-10.68L102.44-10.68Q102.44-7.52 100.98-5.02Q99.52-2.52 96.92-1.12Q94.32 0.28 91.04 0.28L91.04 0.28ZM91.04-4Q93.80-4 95.60-5.84Q97.40-7.68 97.40-10.68L97.40-10.68Q97.40-13.68 95.60-15.52Q93.80-17.36 91.04-17.36L91.04-17.36Q88.28-17.36 86.50-15.52Q84.72-13.68 84.72-10.68L84.72-10.68Q84.72-7.68 86.50-5.84Q88.28-4 91.04-4L91.04-4Z M119.92-25.92Q116.76-25.92 116.76-22.48L116.76-22.48L116.76-21.20L122.64-21.20L122.64-17.20L116.92-17.20L116.92 0L111.92 0L111.92-17.20L108.40-17.20L108.40-21.20L111.92-21.20L111.92-22.56Q111.92-26 113.92-27.98Q115.92-29.96 119.56-29.96L119.56-29.96Q122.44-29.96 124.08-28.80L124.08-28.80L122.68-25.04Q121.40-25.92 119.92-25.92L119.92-25.92Z M141.44-4.72L142.84-1.16Q141.96-0.44 140.70-0.08Q139.44 0.28 138.04 0.28L138.04 0.28Q134.52 0.28 132.60-1.56Q130.68-3.40 130.68-6.92L130.68-6.92L130.68-17.20L127.16-17.20L127.16-21.20L130.68-21.20L130.68-26.08L135.68-26.08L135.68-21.20L141.40-21.20L141.40-17.20L135.68-17.20L135.68-7.04Q135.68-5.48 136.44-4.66Q137.20-3.84 138.64-3.84L138.64-3.84Q140.32-3.84 141.44-4.72L141.44-4.72Z M179.44-21.36L183.88-21.36L176 0L171.20 0L165.68-14.72L160.08 0L155.28 0L147.44-21.36L152.16-21.36L157.80-5.60L163.68-21.36L167.88-21.36L173.64-5.52L179.44-21.36Z M198.80-21.60Q203.52-21.60 206.02-19.34Q208.52-17.08 208.52-12.52L208.52-12.52L208.52 0L203.80 0L203.80-2.60Q202.88-1.20 201.18-0.46Q199.48 0.28 197.08 0.28L197.08 0.28Q194.68 0.28 192.88-0.54Q191.08-1.36 190.10-2.82Q189.12-4.28 189.12-6.12L189.12-6.12Q189.12-9 191.26-10.74Q193.40-12.48 198-12.48L198-12.48L203.52-12.48L203.52-12.80Q203.52-15.04 202.18-16.24Q200.84-17.44 198.20-17.44L198.20-17.44Q196.40-17.44 194.66-16.88Q192.92-16.32 191.72-15.32L191.72-15.32L189.76-18.96Q191.44-20.24 193.80-20.92Q196.16-21.60 198.80-21.60L198.80-21.60ZM198.12-3.36Q200-3.36 201.46-4.22Q202.92-5.08 203.52-6.68L203.52-6.68L203.52-9.16L198.36-9.16Q194.04-9.16 194.04-6.32L194.04-6.32Q194.04-4.96 195.12-4.16Q196.20-3.36 198.12-3.36L198.12-3.36Z M223.68-18.24Q225.84-21.60 231.28-21.60L231.28-21.60L231.28-16.84Q230.64-16.96 230.12-16.96L230.12-16.96Q227.20-16.96 225.56-15.26Q223.92-13.56 223.92-10.36L223.92-10.36L223.92 0L218.92 0L218.92-21.36L223.68-21.36L223.68-18.24Z M259.40-10.56Q259.40-10.04 259.32-9.08L259.32-9.08L242.56-9.08Q243-6.72 244.86-5.34Q246.72-3.96 249.48-3.96L249.48-3.96Q253-3.96 255.28-6.28L255.28-6.28L257.96-3.20Q256.52-1.48 254.32-0.60Q252.12 0.28 249.36 0.28L249.36 0.28Q245.84 0.28 243.16-1.12Q240.48-2.52 239.02-5.02Q237.56-7.52 237.56-10.68L237.56-10.68Q237.56-13.80 238.98-16.30Q240.40-18.80 242.92-20.20Q245.44-21.60 248.60-21.60L248.60-21.60Q251.72-21.60 254.18-20.22Q256.64-18.84 258.02-16.34Q259.40-13.84 259.40-10.56L259.40-10.56ZM248.60-17.60Q246.20-17.60 244.54-16.18Q242.88-14.76 242.52-12.40L242.52-12.40L254.64-12.40Q254.32-14.72 252.68-16.16Q251.04-17.60 248.60-17.60L248.60-17.60Z M319.68-28L324.64-28L315.36 0L309.84 0L302.92-20.72L295.88 0L290.32 0L281.04-28L286.44-28L293.40-6.72L300.64-28L305.44-28L312.52-6.60L319.68-28Z M340.40 0.28Q337.16 0.28 334.56-1.12Q331.96-2.52 330.50-5.02Q329.04-7.52 329.04-10.68L329.04-10.68Q329.04-13.84 330.50-16.32Q331.96-18.80 334.56-20.20Q337.16-21.60 340.40-21.60L340.40-21.60Q343.68-21.60 346.28-20.20Q348.88-18.80 350.34-16.32Q351.80-13.84 351.80-10.68L351.80-10.68Q351.80-7.52 350.34-5.02Q348.88-2.52 346.28-1.12Q343.68 0.28 340.40 0.28L340.40 0.28ZM340.40-4Q343.16-4 344.96-5.84Q346.76-7.68 346.76-10.68L346.76-10.68Q346.76-13.68 344.96-15.52Q343.16-17.36 340.40-17.36L340.40-17.36Q337.64-17.36 335.86-15.52Q334.08-13.68 334.08-10.68L334.08-10.68Q334.08-7.68 335.86-5.84Q337.64-4 340.40-4L340.40-4Z M365.36-18.24Q367.52-21.60 372.96-21.60L372.96-21.60L372.96-16.84Q372.32-16.96 371.80-16.96L371.80-16.96Q368.88-16.96 367.24-15.26Q365.60-13.56 365.60-10.36L365.60-10.36L365.60 0L360.60 0L360.60-21.36L365.36-21.36L365.36-18.24Z M381.20 0L381.20-29.68L386.20-29.68L386.20 0L381.20 0Z M412.68-29.68L417.68-29.68L417.68 0L412.88 0L412.88-2.76Q411.64-1.24 409.82-0.48Q408.00 0.28 405.80 0.28L405.80 0.28Q402.72 0.28 400.26-1.08Q397.80-2.44 396.40-4.94Q395.00-7.44 395.00-10.68L395.00-10.68Q395.00-13.92 396.40-16.40Q397.80-18.88 400.26-20.24Q402.72-21.60 405.80-21.60L405.80-21.60Q407.92-21.60 409.68-20.88Q411.44-20.16 412.68-18.72L412.68-18.72L412.68-29.68ZM406.40-4Q408.20-4 409.64-4.82Q411.08-5.64 411.92-7.16Q412.76-8.68 412.76-10.68L412.76-10.68Q412.76-12.68 411.92-14.20Q411.08-15.72 409.64-16.54Q408.20-17.36 406.40-17.36L406.40-17.36Q404.60-17.36 403.16-16.54Q401.72-15.72 400.88-14.20Q400.04-12.68 400.04-10.68L400.04-10.68Q400.04-8.68 400.88-7.16Q401.72-5.64 403.16-4.82Q404.60-4 406.40-4L406.40-4Z"/></g>
</svg>
</g><g opacity="1" transform="rotate(0 529.6022 294.9856)">
<svg width="222.6796" height="60.56" x="529.6022" y="294.9856" version="1.1" preserveAspectRatio="none" viewBox="1.48 -21.84 81.48 22.16">
  <g transform="matrix(1 0 0 1 0 0)" class="aD6z1nYkhcolor"><path id="id-D6z1nYkh3" d="M11.56-21.84Q16.56-21.84 19.24-19.46Q21.92-17.08 21.92-12.28L21.92-12.28L21.92 0L16.08 0L16.08-2.68Q14.32 0.32 9.52 0.32L9.52 0.32Q7.04 0.32 5.22-0.52Q3.40-1.36 2.44-2.84Q1.48-4.32 1.48-6.20L1.48-6.20Q1.48-9.20 3.74-10.92Q6-12.64 10.72-12.64L10.72-12.64L15.68-12.64Q15.68-14.68 14.44-15.78Q13.20-16.88 10.72-16.88L10.72-16.88Q9-16.88 7.34-16.34Q5.68-15.80 4.52-14.88L4.52-14.88L2.28-19.24Q4.04-20.48 6.50-21.16Q8.96-21.84 11.56-21.84L11.56-21.84ZM11.08-3.88Q12.68-3.88 13.92-4.62Q15.16-5.36 15.68-6.80L15.68-6.80L15.68-9L11.40-9Q7.56-9 7.56-6.48L7.56-6.48Q7.56-5.28 8.50-4.58Q9.44-3.88 11.08-3.88L11.08-3.88Z M34.80 0.32Q32.12 0.32 29.56-0.34Q27-1 25.48-2L25.48-2L27.56-6.48Q29-5.56 31.04-4.98Q33.08-4.40 35.04-4.40L35.04-4.40Q39-4.40 39-6.36L39-6.36Q39-7.28 37.92-7.68Q36.84-8.08 34.60-8.36L34.60-8.36Q31.96-8.76 30.24-9.28Q28.52-9.80 27.26-11.12Q26-12.44 26-14.88L26-14.88Q26-16.92 27.18-18.50Q28.36-20.08 30.62-20.96Q32.88-21.84 35.96-21.84L35.96-21.84Q38.24-21.84 40.50-21.34Q42.76-20.84 44.24-19.96L44.24-19.96L42.16-15.52Q39.32-17.12 35.96-17.12L35.96-17.12Q33.96-17.12 32.96-16.56Q31.96-16 31.96-15.12L31.96-15.12Q31.96-14.12 33.04-13.72Q34.12-13.32 36.48-12.96L36.48-12.96Q39.12-12.52 40.80-12.02Q42.48-11.52 43.72-10.20Q44.96-8.88 44.96-6.52L44.96-6.52Q44.96-4.52 43.76-2.96Q42.56-1.40 40.26-0.54Q37.96 0.32 34.80 0.32L34.80 0.32Z M77.44-21.52L82.96-21.52L75.16 0L69.16 0L64.32-13.36L59.32 0L53.32 0L45.56-21.52L51.44-21.52L56.52-6.96L61.80-21.52L67.08-21.52L72.20-6.96L77.44-21.52Z"/></g>
</svg>
</g><g opacity="1" transform="rotate(0 509.0118 278.6343)">
<svg width="3.6336" height="122.3313" x="509.0118" y="278.6343" version="1.1" preserveAspectRatio="none" viewBox="0 0 3.6336 122.3313">
  <rect x="0" y="0" width="3.6336" height="122.3313" class="atBXipXk0bfillColor shapeStroke-str" style="stroke-width:0;" rx="0px" ry="0px" />
</svg>
</g></svg>